<svg xmlns="http://www.w3.org/2000/svg" width="400" height="400" viewBox="0 0 400 400">
  <defs>
    <linearGradient id="bgGrad" x1="0%" y1="0%" x2="100%" y2="100%">
      <stop offset="0%" stop-color="#f1f5f9"/>
      <stop offset="100%" stop-color="#e2e8f0"/>
    </linearGradient>
    <linearGradient id="avatarGrad" x1="0%" y1="0%" x2="100%" y2="100%">
      <stop offset="0%" stop-color="#cbd5e1"/>
      <stop offset="100%" stop-color="#94a3b8"/>
    </linearGradient>
  </defs>
  
  <!-- Background -->
  <rect width="400" height="400" fill="url(#bgGrad)"/>
  
  <!-- Dashed Border Box -->
  <rect x="20" y="20" width="360" height="360" rx="16" fill="none" stroke="#94a3b8" stroke-width="2" stroke-dasharray="8 6" opacity="0.6"/>
  
  <!-- User Head & Body Silhouette -->
  <circle cx="200" cy="144" r="56" fill="url(#avatarGrad)"/>
  <path d="M84 330 C84 240 136 216 200 216 C264 216 316 240 316 330 Z" fill="url(#avatarGrad)"/>

  <!-- Camera / Add Photo Icon Badge -->
  <circle cx="200" cy="310" r="28" fill="#1c2d6b"/>
  <path d="M188 304 H192 L195 300 H205 L208 304 H212 C214.2 304 216 305.8 216 308 V318 C216 320.2 214.2 322 212 322 H188 C185.8 322 184 320.2 184 318 V308 C184 305.8 185.8 304 188 304 Z" fill="#ffffff"/>
  <circle cx="200" cy="313" r="5" fill="none" stroke="#ffffff" stroke-width="2"/>
</svg>
